<?xml version="1.0" encoding="UTF-8" standalone="no"?>
<!DOCTYPE svg PUBLIC "-//W3C//DTD SVG 1.1//EN"
 "http://www.w3.org/Graphics/SVG/1.1/DTD/svg11.dtd">
<!-- Generated by graphviz version 12.1.2 (20240928.0832)
 -->
<!-- Pages: 1 -->
<svg width="426pt" height="386pt"
 viewBox="0.00 0.00 425.75 386.00" xmlns="http://www.w3.org/2000/svg" xmlns:xlink="http://www.w3.org/1999/xlink">
<g id="graph0" class="graph" transform="scale(1 1) rotate(0) translate(4 382)">
<polygon fill="white" stroke="none" points="-4,4 -4,-382 421.75,-382 421.75,4 -4,4"/>
<!-- x1 -->
<g id="node1" class="node">
<title>x1</title>
<path fill="none" stroke="black" d="M219.25,-378C219.25,-378 12,-378 12,-378 6,-378 0,-372 0,-366 0,-366 0,-294 0,-294 0,-288 6,-282 12,-282 12,-282 219.25,-282 219.25,-282 225.25,-282 231.25,-288 231.25,-294 231.25,-294 231.25,-366 231.25,-366 231.25,-372 225.25,-378 219.25,-378"/>
<text text-anchor="middle" x="115.62" y="-360.7" font-family="Times,serif" font-size="14.00">x₁ = π/2 </text>
<text text-anchor="middle" x="115.62" y="-326.7" font-family="Times,serif" font-size="14.00"> ∂y/∂x₂ </text>
<text text-anchor="middle" x="115.62" y="-308.7" font-family="Times,serif" font-size="14.00">= ∂y/∂v₁ · ∂v₁/∂x₁ + ∂y/∂v₂ · ∂v₂/∂x₁ </text>
<text text-anchor="middle" x="115.62" y="-290.7" font-family="Times,serif" font-size="14.00">= v₂ cos(x₁) + v₁ = 1</text>
</g>
<!-- v1 -->
<g id="node3" class="node">
<title>v1</title>
<path fill="none" stroke="black" d="M187.75,-246C187.75,-246 43.5,-246 43.5,-246 37.5,-246 31.5,-240 31.5,-234 31.5,-234 31.5,-180 31.5,-180 31.5,-174 37.5,-168 43.5,-168 43.5,-168 187.75,-168 187.75,-168 193.75,-168 199.75,-174 199.75,-180 199.75,-180 199.75,-234 199.75,-234 199.75,-240 193.75,-246 187.75,-246"/>
<text text-anchor="middle" x="115.62" y="-228.7" font-family="Times,serif" font-size="14.00">v₁ = sin(x₁) = 1 </text>
<text text-anchor="middle" x="115.62" y="-194.7" font-family="Times,serif" font-size="14.00"> ∂y/∂v₁ = ∂y/∂v₃ · ∂v₃/∂v₁ </text>
<text text-anchor="middle" x="115.62" y="-176.7" font-family="Times,serif" font-size="14.00">= v₂ = π/2 + 1</text>
</g>
<!-- x1&#45;&gt;v1 -->
<g id="edge1" class="edge">
<title>x1&#45;&gt;v1</title>
<path fill="none" stroke="black" d="M115.62,-281.52C115.62,-273.7 115.62,-265.56 115.62,-257.68"/>
<polygon fill="black" stroke="black" points="119.13,-257.89 115.63,-247.89 112.13,-257.89 119.13,-257.89"/>
</g>
<!-- v2 -->
<g id="node4" class="node">
<title>v2</title>
<path fill="none" stroke="black" d="M373.75,-246C373.75,-246 229.5,-246 229.5,-246 223.5,-246 217.5,-240 217.5,-234 217.5,-234 217.5,-180 217.5,-180 217.5,-174 223.5,-168 229.5,-168 229.5,-168 373.75,-168 373.75,-168 379.75,-168 385.75,-174 385.75,-180 385.75,-180 385.75,-234 385.75,-234 385.75,-240 379.75,-246 373.75,-246"/>
<text text-anchor="middle" x="301.62" y="-228.7" font-family="Times,serif" font-size="14.00">v₂ = x₁ + x₂ = π/2 + 1 </text>
<text text-anchor="middle" x="301.62" y="-194.7" font-family="Times,serif" font-size="14.00"> ∂y/∂v₂ = ∂y/∂v₃ · ∂v₃/∂v₂ </text>
<text text-anchor="middle" x="301.62" y="-176.7" font-family="Times,serif" font-size="14.00">= v₁ = 1</text>
</g>
<!-- x1&#45;&gt;v2 -->
<g id="edge2" class="edge">
<title>x1&#45;&gt;v2</title>
<path fill="none" stroke="black" d="M188.6,-281.52C203.3,-271.97 218.69,-261.95 233.22,-252.5"/>
<polygon fill="black" stroke="black" points="234.89,-255.59 241.36,-247.2 231.07,-249.72 234.89,-255.59"/>
</g>
<!-- x2 -->
<g id="node2" class="node">
<title>x2</title>
<path fill="none" stroke="black" d="M405.75,-369C405.75,-369 261.5,-369 261.5,-369 255.5,-369 249.5,-363 249.5,-357 249.5,-357 249.5,-303 249.5,-303 249.5,-297 255.5,-291 261.5,-291 261.5,-291 405.75,-291 405.75,-291 411.75,-291 417.75,-297 417.75,-303 417.75,-303 417.75,-357 417.75,-357 417.75,-363 411.75,-369 405.75,-369"/>
<text text-anchor="middle" x="333.62" y="-351.7" font-family="Times,serif" font-size="14.00">x₂ = 1 </text>
<text text-anchor="middle" x="333.62" y="-317.7" font-family="Times,serif" font-size="14.00"> ∂y/∂x₂ = ∂y/∂v₂ · ∂v₂/∂x₂ </text>
<text text-anchor="middle" x="333.62" y="-299.7" font-family="Times,serif" font-size="14.00">= v₁ = 1</text>
</g>
<!-- x2&#45;&gt;v2 -->
<g id="edge3" class="edge">
<title>x2&#45;&gt;v2</title>
<path fill="none" stroke="black" d="M323.5,-290.71C320.7,-280.12 317.62,-268.47 314.68,-257.35"/>
<polygon fill="black" stroke="black" points="318.12,-256.69 312.18,-247.91 311.35,-258.48 318.12,-256.69"/>
</g>
<!-- v3 -->
<g id="node5" class="node">
<title>v3</title>
<path fill="none" stroke="black" d="M267.25,-132C267.25,-132 150,-132 150,-132 144,-132 138,-126 138,-120 138,-120 138,-84 138,-84 138,-78 144,-72 150,-72 150,-72 267.25,-72 267.25,-72 273.25,-72 279.25,-78 279.25,-84 279.25,-84 279.25,-120 279.25,-120 279.25,-126 273.25,-132 267.25,-132"/>
<text text-anchor="middle" x="208.62" y="-114.7" font-family="Times,serif" font-size="14.00">v₃ = v₁ · v₂ = π/2 + 1 </text>
<text text-anchor="middle" x="208.62" y="-80.7" font-family="Times,serif" font-size="14.00"> ∂y/∂v₃ = ∂v₃/∂v₃ = 1</text>
</g>
<!-- v1&#45;&gt;v3 -->
<g id="edge4" class="edge">
<title>v1&#45;&gt;v3</title>
<path fill="none" stroke="black" d="M150.25,-167.65C158.16,-158.9 166.55,-149.6 174.43,-140.87"/>
<polygon fill="black" stroke="black" points="176.99,-143.26 181.09,-133.49 171.79,-138.57 176.99,-143.26"/>
</g>
<!-- v2&#45;&gt;v3 -->
<g id="edge5" class="edge">
<title>v2&#45;&gt;v3</title>
<path fill="none" stroke="black" d="M267,-167.65C259.09,-158.9 250.7,-149.6 242.82,-140.87"/>
<polygon fill="black" stroke="black" points="245.46,-138.57 236.16,-133.49 240.26,-143.26 245.46,-138.57"/>
</g>
<!-- y -->
<g id="node6" class="node">
<title>y</title>
<path fill="none" stroke="black" d="M223.62,-36C223.62,-36 193.62,-36 193.62,-36 187.62,-36 181.62,-30 181.62,-24 181.62,-24 181.62,-12 181.62,-12 181.62,-6 187.62,0 193.62,0 193.62,0 223.62,0 223.62,0 229.62,0 235.62,-6 235.62,-12 235.62,-12 235.62,-24 235.62,-24 235.62,-30 229.62,-36 223.62,-36"/>
<text text-anchor="middle" x="208.62" y="-13.7" font-family="Times,serif" font-size="14.00">y=v₃</text>
</g>
<!-- v3&#45;&gt;y -->
<g id="edge6" class="edge">
<title>v3&#45;&gt;y</title>
<path fill="none" stroke="black" d="M208.62,-71.86C208.62,-63.91 208.62,-55.31 208.62,-47.41"/>
<polygon fill="black" stroke="black" points="212.13,-47.63 208.63,-37.63 205.13,-47.63 212.13,-47.63"/>
</g>
</g>
</svg>
