<?xml version="1.0" encoding="UTF-8" standalone="no"?>
<!DOCTYPE svg PUBLIC "-//W3C//DTD SVG 1.1//EN" "http://www.w3.org/Graphics/SVG/1.1/DTD/svg11.dtd">
<svg xmlns="http://www.w3.org/2000/svg" xmlns:dc="http://purl.org/dc/elements/1.1/" version="1.1" xmlns:xl="http://www.w3.org/1999/xlink" viewBox="10 3 462 441" width="462" height="441">
  <defs/>
  <g id="Canvas_1" stroke-opacity="1" stroke="none" fill="none" fill-opacity="1" stroke-dasharray="none">
    <title>1</title>
    <g id="Canvas_1_Layer_1">
      <title>Layer 1</title>
      <g id="Graphic_3">
        <rect x="40.695312" y="154.13147" width="30" height="30" fill="white"/>
        <rect x="40.695312" y="154.13147" width="30" height="30" stroke="gray" stroke-linecap="round" stroke-linejoin="round" stroke-width="1"/>
      </g>
      <g id="Graphic_4">
        <rect x="70.69531" y="154.13147" width="30" height="30" fill="white"/>
        <rect x="70.69531" y="154.13147" width="30" height="30" stroke="gray" stroke-linecap="round" stroke-linejoin="round" stroke-width="1"/>
      </g>
      <g id="Graphic_5">
        <rect x="40.695312" y="184.13147" width="30" height="30" fill="white"/>
        <rect x="40.695312" y="184.13147" width="30" height="30" stroke="gray" stroke-linecap="round" stroke-linejoin="round" stroke-width="1"/>
      </g>
      <g id="Graphic_6">
        <rect x="70.69531" y="184.13147" width="30" height="30" fill="red"/>
        <rect x="70.69531" y="184.13147" width="30" height="30" stroke="gray" stroke-linecap="round" stroke-linejoin="round" stroke-width="1"/>
      </g>
      <g id="Graphic_10">
        <rect x="40.695312" y="214.13147" width="30" height="30" fill="white"/>
        <rect x="40.695312" y="214.13147" width="30" height="30" stroke="gray" stroke-linecap="round" stroke-linejoin="round" stroke-width="1"/>
      </g>
      <g id="Graphic_9">
        <rect x="70.69531" y="214.13147" width="30" height="30" fill="white"/>
        <rect x="70.69531" y="214.13147" width="30" height="30" stroke="gray" stroke-linecap="round" stroke-linejoin="round" stroke-width="1"/>
      </g>
      <g id="Graphic_8">
        <rect x="40.695312" y="244.13147" width="30" height="30" fill="white"/>
        <rect x="40.695312" y="244.13147" width="30" height="30" stroke="gray" stroke-linecap="round" stroke-linejoin="round" stroke-width="1"/>
      </g>
      <g id="Graphic_7">
        <rect x="70.69531" y="244.13147" width="30" height="30" fill="white"/>
        <rect x="70.69531" y="244.13147" width="30" height="30" stroke="gray" stroke-linecap="round" stroke-linejoin="round" stroke-width="1"/>
      </g>
      <g id="Graphic_14">
        <rect x="190.69531" y="3.5" width="30" height="30" fill="white"/>
        <rect x="190.69531" y="3.5" width="30" height="30" stroke="gray" stroke-linecap="round" stroke-linejoin="round" stroke-width="1"/>
      </g>
      <g id="Graphic_13">
        <rect x="220.6953" y="3.5" width="30" height="30" fill="white"/>
        <rect x="220.6953" y="3.5" width="30" height="30" stroke="gray" stroke-linecap="round" stroke-linejoin="round" stroke-width="1"/>
      </g>
      <g id="Graphic_12">
        <rect x="190.69531" y="33.5" width="30" height="30" fill="#ffc0c0"/>
        <rect x="190.69531" y="33.5" width="30" height="30" stroke="gray" stroke-linecap="round" stroke-linejoin="round" stroke-width="1"/>
      </g>
      <g id="Graphic_11">
        <rect x="220.6953" y="33.5" width="30" height="30" fill="#ffc0c0"/>
        <rect x="220.6953" y="33.5" width="30" height="30" stroke="gray" stroke-linecap="round" stroke-linejoin="round" stroke-width="1"/>
      </g>
      <g id="Graphic_18">
        <rect x="250.6953" y="3.5" width="30" height="30" fill="white"/>
        <rect x="250.6953" y="3.5" width="30" height="30" stroke="gray" stroke-linecap="round" stroke-linejoin="round" stroke-width="1"/>
      </g>
      <g id="Graphic_17">
        <rect x="280.6953" y="3.5" width="30" height="30" fill="white"/>
        <rect x="280.6953" y="3.5" width="30" height="30" stroke="gray" stroke-linecap="round" stroke-linejoin="round" stroke-width="1"/>
      </g>
      <g id="Graphic_16">
        <rect x="250.6953" y="33.5" width="30" height="30" fill="#ffc0c0"/>
        <rect x="250.6953" y="33.5" width="30" height="30" stroke="gray" stroke-linecap="round" stroke-linejoin="round" stroke-width="1"/>
      </g>
      <g id="Graphic_15">
        <rect x="280.6953" y="33.5" width="30" height="30" fill="#ffc0c0"/>
        <rect x="280.6953" y="33.5" width="30" height="30" stroke="gray" stroke-linecap="round" stroke-linejoin="round" stroke-width="1"/>
      </g>
      <g id="Graphic_26">
        <rect x="190.69531" y="153.5" width="30" height="30" fill="white"/>
        <rect x="190.69531" y="153.5" width="30" height="30" stroke="gray" stroke-linecap="round" stroke-linejoin="round" stroke-width="1"/>
      </g>
      <g id="Graphic_25">
        <rect x="220.6953" y="153.5" width="30" height="30" fill="white"/>
        <rect x="220.6953" y="153.5" width="30" height="30" stroke="gray" stroke-linecap="round" stroke-linejoin="round" stroke-width="1"/>
      </g>
      <g id="Graphic_24">
        <rect x="190.69531" y="183.5" width="30" height="30" fill="#ffc0c0"/>
        <rect x="190.69531" y="183.5" width="30" height="30" stroke="gray" stroke-linecap="round" stroke-linejoin="round" stroke-width="1"/>
      </g>
      <g id="Graphic_23">
        <rect x="220.6953" y="183.5" width="30" height="30" fill="#ffc0c0"/>
        <rect x="220.6953" y="183.5" width="30" height="30" stroke="gray" stroke-linecap="round" stroke-linejoin="round" stroke-width="1"/>
      </g>
      <g id="Graphic_22">
        <rect x="250.6953" y="153.5" width="30" height="30" fill="white"/>
        <rect x="250.6953" y="153.5" width="30" height="30" stroke="gray" stroke-linecap="round" stroke-linejoin="round" stroke-width="1"/>
      </g>
      <g id="Graphic_21">
        <rect x="280.6953" y="153.5" width="30" height="30" fill="white"/>
        <rect x="280.6953" y="153.5" width="30" height="30" stroke="gray" stroke-linecap="round" stroke-linejoin="round" stroke-width="1"/>
      </g>
      <g id="Graphic_20">
        <rect x="250.6953" y="183.5" width="30" height="30" fill="#ffc0c0"/>
        <rect x="250.6953" y="183.5" width="30" height="30" stroke="gray" stroke-linecap="round" stroke-linejoin="round" stroke-width="1"/>
      </g>
      <g id="Graphic_19">
        <rect x="280.6953" y="183.5" width="30" height="30" fill="#ffc0c0"/>
        <rect x="280.6953" y="183.5" width="30" height="30" stroke="gray" stroke-linecap="round" stroke-linejoin="round" stroke-width="1"/>
      </g>
      <g id="Graphic_34">
        <rect x="190.69531" y="213.5" width="30" height="30" fill="white"/>
        <rect x="190.69531" y="213.5" width="30" height="30" stroke="gray" stroke-linecap="round" stroke-linejoin="round" stroke-width="1"/>
      </g>
      <g id="Graphic_33">
        <rect x="220.6953" y="213.5" width="30" height="30" fill="white"/>
        <rect x="220.6953" y="213.5" width="30" height="30" stroke="gray" stroke-linecap="round" stroke-linejoin="round" stroke-width="1"/>
      </g>
      <g id="Graphic_32">
        <rect x="190.69531" y="243.5" width="30" height="30" fill="white"/>
        <rect x="190.69531" y="243.5" width="30" height="30" stroke="gray" stroke-linecap="round" stroke-linejoin="round" stroke-width="1"/>
      </g>
      <g id="Graphic_31">
        <rect x="220.6953" y="243.5" width="30" height="30" fill="white"/>
        <rect x="220.6953" y="243.5" width="30" height="30" stroke="gray" stroke-linecap="round" stroke-linejoin="round" stroke-width="1"/>
      </g>
      <g id="Graphic_30">
        <rect x="250.6953" y="213.5" width="30" height="30" fill="white"/>
        <rect x="250.6953" y="213.5" width="30" height="30" stroke="gray" stroke-linecap="round" stroke-linejoin="round" stroke-width="1"/>
      </g>
      <g id="Graphic_29">
        <rect x="280.6953" y="213.5" width="30" height="30" fill="white"/>
        <rect x="280.6953" y="213.5" width="30" height="30" stroke="gray" stroke-linecap="round" stroke-linejoin="round" stroke-width="1"/>
      </g>
      <g id="Graphic_28">
        <rect x="250.6953" y="243.5" width="30" height="30" fill="white"/>
        <rect x="250.6953" y="243.5" width="30" height="30" stroke="gray" stroke-linecap="round" stroke-linejoin="round" stroke-width="1"/>
      </g>
      <g id="Graphic_27">
        <rect x="280.6953" y="243.5" width="30" height="30" fill="white"/>
        <rect x="280.6953" y="243.5" width="30" height="30" stroke="gray" stroke-linecap="round" stroke-linejoin="round" stroke-width="1"/>
      </g>
      <g id="Graphic_35">
        <text transform="translate(15.231344 204.276)" fill="black">
          <tspan font-family="Helvetica Neue" font-size="16" fill="black" x="2762235e-19" y="15" xml:space="preserve">a</tspan>
        </text>
      </g>
      <g id="Graphic_36">
        <text transform="translate(456.83984 70.052)" fill="black">
          <tspan font-family="Helvetica Neue" font-size="16" fill="black" x="5968559e-19" y="15" xml:space="preserve">b</tspan>
        </text>
      </g>
      <g id="Graphic_37">
        <text transform="translate(321.3993 419.6133)" fill="black">
          <tspan font-family="Helvetica Neue" font-size="16" fill="black" x="2762235e-19" y="15" xml:space="preserve">c</tspan>
        </text>
      </g>
      <g id="Graphic_41">
        <rect x="190.69531" y="63.5" width="30" height="30" fill="white"/>
        <rect x="190.69531" y="63.5" width="30" height="30" stroke="gray" stroke-linecap="round" stroke-linejoin="round" stroke-width="1"/>
      </g>
      <g id="Graphic_40">
        <rect x="220.6953" y="63.5" width="30" height="30" fill="white"/>
        <rect x="220.6953" y="63.5" width="30" height="30" stroke="gray" stroke-linecap="round" stroke-linejoin="round" stroke-width="1"/>
      </g>
      <g id="Graphic_39">
        <rect x="250.6953" y="63.5" width="30" height="30" fill="white"/>
        <rect x="250.6953" y="63.5" width="30" height="30" stroke="gray" stroke-linecap="round" stroke-linejoin="round" stroke-width="1"/>
      </g>
      <g id="Graphic_38">
        <rect x="280.6953" y="63.5" width="30" height="30" fill="white"/>
        <rect x="280.6953" y="63.5" width="30" height="30" stroke="gray" stroke-linecap="round" stroke-linejoin="round" stroke-width="1"/>
      </g>
      <g id="Graphic_45">
        <rect x="100.69531" y="153.5" width="30" height="30" fill="white"/>
        <rect x="100.69531" y="153.5" width="30" height="30" stroke="gray" stroke-linecap="round" stroke-linejoin="round" stroke-width="1"/>
      </g>
      <g id="Graphic_44">
        <rect x="100.69531" y="183.5" width="30" height="30" fill="white"/>
        <rect x="100.69531" y="183.5" width="30" height="30" stroke="gray" stroke-linecap="round" stroke-linejoin="round" stroke-width="1"/>
      </g>
      <g id="Graphic_43">
        <rect x="100.69531" y="213.5" width="30" height="30" fill="white"/>
        <rect x="100.69531" y="213.5" width="30" height="30" stroke="gray" stroke-linecap="round" stroke-linejoin="round" stroke-width="1"/>
      </g>
      <g id="Graphic_42">
        <rect x="100.69531" y="243.5" width="30" height="30" fill="white"/>
        <rect x="100.69531" y="243.5" width="30" height="30" stroke="gray" stroke-linecap="round" stroke-linejoin="round" stroke-width="1"/>
      </g>
      <g id="Graphic_49">
        <rect x="130.69531" y="153.5" width="30" height="30" fill="white"/>
        <rect x="130.69531" y="153.5" width="30" height="30" stroke="gray" stroke-linecap="round" stroke-linejoin="round" stroke-width="1"/>
      </g>
      <g id="Graphic_48">
        <rect x="130.69531" y="183.5" width="30" height="30" fill="white"/>
        <rect x="130.69531" y="183.5" width="30" height="30" stroke="gray" stroke-linecap="round" stroke-linejoin="round" stroke-width="1"/>
      </g>
      <g id="Graphic_47">
        <rect x="130.69531" y="213.5" width="30" height="30" fill="white"/>
        <rect x="130.69531" y="213.5" width="30" height="30" stroke="gray" stroke-linecap="round" stroke-linejoin="round" stroke-width="1"/>
      </g>
      <g id="Graphic_46">
        <rect x="130.69531" y="243.5" width="30" height="30" fill="white"/>
        <rect x="130.69531" y="243.5" width="30" height="30" stroke="gray" stroke-linecap="round" stroke-linejoin="round" stroke-width="1"/>
      </g>
      <g id="Graphic_65">
        <rect x="40.695312" y="274.13147" width="30" height="30" fill="white"/>
        <rect x="40.695312" y="274.13147" width="30" height="30" stroke="gray" stroke-linecap="round" stroke-linejoin="round" stroke-width="1"/>
      </g>
      <g id="Graphic_64">
        <rect x="70.69531" y="274.13147" width="30" height="30" fill="white"/>
        <rect x="70.69531" y="274.13147" width="30" height="30" stroke="gray" stroke-linecap="round" stroke-linejoin="round" stroke-width="1"/>
      </g>
      <g id="Graphic_63">
        <rect x="40.695312" y="304.13147" width="30" height="30" fill="white"/>
        <rect x="40.695312" y="304.13147" width="30" height="30" stroke="gray" stroke-linecap="round" stroke-linejoin="round" stroke-width="1"/>
      </g>
      <g id="Graphic_62">
        <rect x="70.69531" y="304.13147" width="30" height="30" fill="white"/>
        <rect x="70.69531" y="304.13147" width="30" height="30" stroke="gray" stroke-linecap="round" stroke-linejoin="round" stroke-width="1"/>
      </g>
      <g id="Graphic_61">
        <rect x="100.69531" y="274.13147" width="30" height="30" fill="white"/>
        <rect x="100.69531" y="274.13147" width="30" height="30" stroke="gray" stroke-linecap="round" stroke-linejoin="round" stroke-width="1"/>
      </g>
      <g id="Graphic_60">
        <rect x="130.69531" y="274.13147" width="30" height="30" fill="white"/>
        <rect x="130.69531" y="274.13147" width="30" height="30" stroke="gray" stroke-linecap="round" stroke-linejoin="round" stroke-width="1"/>
      </g>
      <g id="Graphic_59">
        <rect x="100.69531" y="304.13147" width="30" height="30" fill="white"/>
        <rect x="100.69531" y="304.13147" width="30" height="30" stroke="gray" stroke-linecap="round" stroke-linejoin="round" stroke-width="1"/>
      </g>
      <g id="Graphic_58">
        <rect x="130.69531" y="304.13147" width="30" height="30" fill="white"/>
        <rect x="130.69531" y="304.13147" width="30" height="30" stroke="gray" stroke-linecap="round" stroke-linejoin="round" stroke-width="1"/>
      </g>
      <g id="Graphic_57">
        <rect x="40.695312" y="334.13147" width="30" height="30" fill="white"/>
        <rect x="40.695312" y="334.13147" width="30" height="30" stroke="gray" stroke-linecap="round" stroke-linejoin="round" stroke-width="1"/>
      </g>
      <g id="Graphic_56">
        <rect x="70.69531" y="334.13147" width="30" height="30" fill="white"/>
        <rect x="70.69531" y="334.13147" width="30" height="30" stroke="gray" stroke-linecap="round" stroke-linejoin="round" stroke-width="1"/>
      </g>
      <g id="Graphic_55">
        <rect x="40.695312" y="364.13147" width="30" height="30" fill="white"/>
        <rect x="40.695312" y="364.13147" width="30" height="30" stroke="gray" stroke-linecap="round" stroke-linejoin="round" stroke-width="1"/>
      </g>
      <g id="Graphic_54">
        <rect x="70.69531" y="364.13147" width="30" height="30" fill="white"/>
        <rect x="70.69531" y="364.13147" width="30" height="30" stroke="gray" stroke-linecap="round" stroke-linejoin="round" stroke-width="1"/>
      </g>
      <g id="Graphic_53">
        <rect x="100.69531" y="334.13147" width="30" height="30" fill="white"/>
        <rect x="100.69531" y="334.13147" width="30" height="30" stroke="gray" stroke-linecap="round" stroke-linejoin="round" stroke-width="1"/>
      </g>
      <g id="Graphic_52">
        <rect x="130.69531" y="334.13147" width="30" height="30" fill="white"/>
        <rect x="130.69531" y="334.13147" width="30" height="30" stroke="gray" stroke-linecap="round" stroke-linejoin="round" stroke-width="1"/>
      </g>
      <g id="Graphic_51">
        <rect x="100.69531" y="364.13147" width="30" height="30" fill="white"/>
        <rect x="100.69531" y="364.13147" width="30" height="30" stroke="gray" stroke-linecap="round" stroke-linejoin="round" stroke-width="1"/>
      </g>
      <g id="Graphic_50">
        <rect x="130.69531" y="364.13147" width="30" height="30" fill="white"/>
        <rect x="130.69531" y="364.13147" width="30" height="30" stroke="gray" stroke-linecap="round" stroke-linejoin="round" stroke-width="1"/>
      </g>
      <g id="Graphic_81">
        <rect x="190.69531" y="274.13147" width="30" height="30" fill="white"/>
        <rect x="190.69531" y="274.13147" width="30" height="30" stroke="gray" stroke-linecap="round" stroke-linejoin="round" stroke-width="1"/>
      </g>
      <g id="Graphic_80">
        <rect x="220.6953" y="274.13147" width="30" height="30" fill="white"/>
        <rect x="220.6953" y="274.13147" width="30" height="30" stroke="gray" stroke-linecap="round" stroke-linejoin="round" stroke-width="1"/>
      </g>
      <g id="Graphic_79">
        <rect x="190.69531" y="304.13147" width="30" height="30" fill="white"/>
        <rect x="190.69531" y="304.13147" width="30" height="30" stroke="gray" stroke-linecap="round" stroke-linejoin="round" stroke-width="1"/>
      </g>
      <g id="Graphic_78">
        <rect x="220.6953" y="304.13147" width="30" height="30" fill="white"/>
        <rect x="220.6953" y="304.13147" width="30" height="30" stroke="gray" stroke-linecap="round" stroke-linejoin="round" stroke-width="1"/>
      </g>
      <g id="Graphic_77">
        <rect x="250.6953" y="274.13147" width="30" height="30" fill="white"/>
        <rect x="250.6953" y="274.13147" width="30" height="30" stroke="gray" stroke-linecap="round" stroke-linejoin="round" stroke-width="1"/>
      </g>
      <g id="Graphic_76">
        <rect x="280.6953" y="274.13147" width="30" height="30" fill="white"/>
        <rect x="280.6953" y="274.13147" width="30" height="30" stroke="gray" stroke-linecap="round" stroke-linejoin="round" stroke-width="1"/>
      </g>
      <g id="Graphic_75">
        <rect x="250.6953" y="304.13147" width="30" height="30" fill="white"/>
        <rect x="250.6953" y="304.13147" width="30" height="30" stroke="gray" stroke-linecap="round" stroke-linejoin="round" stroke-width="1"/>
      </g>
      <g id="Graphic_74">
        <rect x="280.6953" y="304.13147" width="30" height="30" fill="white"/>
        <rect x="280.6953" y="304.13147" width="30" height="30" stroke="gray" stroke-linecap="round" stroke-linejoin="round" stroke-width="1"/>
      </g>
      <g id="Graphic_73">
        <rect x="190.69531" y="334.13147" width="30" height="30" fill="white"/>
        <rect x="190.69531" y="334.13147" width="30" height="30" stroke="gray" stroke-linecap="round" stroke-linejoin="round" stroke-width="1"/>
      </g>
      <g id="Graphic_72">
        <rect x="220.6953" y="334.13147" width="30" height="30" fill="white"/>
        <rect x="220.6953" y="334.13147" width="30" height="30" stroke="gray" stroke-linecap="round" stroke-linejoin="round" stroke-width="1"/>
      </g>
      <g id="Graphic_71">
        <rect x="190.69531" y="364.13147" width="30" height="30" fill="white"/>
        <rect x="190.69531" y="364.13147" width="30" height="30" stroke="gray" stroke-linecap="round" stroke-linejoin="round" stroke-width="1"/>
      </g>
      <g id="Graphic_70">
        <rect x="220.6953" y="364.13147" width="30" height="30" fill="white"/>
        <rect x="220.6953" y="364.13147" width="30" height="30" stroke="gray" stroke-linecap="round" stroke-linejoin="round" stroke-width="1"/>
      </g>
      <g id="Graphic_69">
        <rect x="250.6953" y="334.13147" width="30" height="30" fill="white"/>
        <rect x="250.6953" y="334.13147" width="30" height="30" stroke="gray" stroke-linecap="round" stroke-linejoin="round" stroke-width="1"/>
      </g>
      <g id="Graphic_68">
        <rect x="280.6953" y="334.13147" width="30" height="30" fill="white"/>
        <rect x="280.6953" y="334.13147" width="30" height="30" stroke="gray" stroke-linecap="round" stroke-linejoin="round" stroke-width="1"/>
      </g>
      <g id="Graphic_67">
        <rect x="250.6953" y="364.13147" width="30" height="30" fill="white"/>
        <rect x="250.6953" y="364.13147" width="30" height="30" stroke="gray" stroke-linecap="round" stroke-linejoin="round" stroke-width="1"/>
      </g>
      <g id="Graphic_66">
        <rect x="280.6953" y="364.13147" width="30" height="30" fill="white"/>
        <rect x="280.6953" y="364.13147" width="30" height="30" stroke="gray" stroke-linecap="round" stroke-linejoin="round" stroke-width="1"/>
      </g>
      <g id="Graphic_113">
        <rect x="310.6953" y="153.5" width="30" height="30" fill="white"/>
        <rect x="310.6953" y="153.5" width="30" height="30" stroke="gray" stroke-linecap="round" stroke-linejoin="round" stroke-width="1"/>
      </g>
      <g id="Graphic_112">
        <rect x="340.6953" y="153.5" width="30" height="30" fill="white"/>
        <rect x="340.6953" y="153.5" width="30" height="30" stroke="gray" stroke-linecap="round" stroke-linejoin="round" stroke-width="1"/>
      </g>
      <g id="Graphic_111">
        <rect x="310.6953" y="183.5" width="30" height="30" fill="#ffc0c0"/>
        <rect x="310.6953" y="183.5" width="30" height="30" stroke="gray" stroke-linecap="round" stroke-linejoin="round" stroke-width="1"/>
      </g>
      <g id="Graphic_110">
        <rect x="340.6953" y="183.5" width="30" height="30" fill="#ffc0c0"/>
        <rect x="340.6953" y="183.5" width="30" height="30" stroke="gray" stroke-linecap="round" stroke-linejoin="round" stroke-width="1"/>
      </g>
      <g id="Graphic_109">
        <rect x="370.6953" y="153.5" width="30" height="30" fill="white"/>
        <rect x="370.6953" y="153.5" width="30" height="30" stroke="gray" stroke-linecap="round" stroke-linejoin="round" stroke-width="1"/>
      </g>
      <g id="Graphic_108">
        <rect x="400.6953" y="153.5" width="30" height="30" fill="white"/>
        <rect x="400.6953" y="153.5" width="30" height="30" stroke="gray" stroke-linecap="round" stroke-linejoin="round" stroke-width="1"/>
      </g>
      <g id="Graphic_107">
        <rect x="370.6953" y="183.5" width="30" height="30" fill="#ffc0c0"/>
        <rect x="370.6953" y="183.5" width="30" height="30" stroke="gray" stroke-linecap="round" stroke-linejoin="round" stroke-width="1"/>
      </g>
      <g id="Graphic_106">
        <rect x="400.6953" y="183.5" width="30" height="30" fill="#ffc0c0"/>
        <rect x="400.6953" y="183.5" width="30" height="30" stroke="gray" stroke-linecap="round" stroke-linejoin="round" stroke-width="1"/>
      </g>
      <g id="Graphic_105">
        <rect x="310.6953" y="213.5" width="30" height="30" fill="white"/>
        <rect x="310.6953" y="213.5" width="30" height="30" stroke="gray" stroke-linecap="round" stroke-linejoin="round" stroke-width="1"/>
      </g>
      <g id="Graphic_104">
        <rect x="340.6953" y="213.5" width="30" height="30" fill="white"/>
        <rect x="340.6953" y="213.5" width="30" height="30" stroke="gray" stroke-linecap="round" stroke-linejoin="round" stroke-width="1"/>
      </g>
      <g id="Graphic_103">
        <rect x="310.6953" y="243.5" width="30" height="30" fill="white"/>
        <rect x="310.6953" y="243.5" width="30" height="30" stroke="gray" stroke-linecap="round" stroke-linejoin="round" stroke-width="1"/>
      </g>
      <g id="Graphic_102">
        <rect x="340.6953" y="243.5" width="30" height="30" fill="white"/>
        <rect x="340.6953" y="243.5" width="30" height="30" stroke="gray" stroke-linecap="round" stroke-linejoin="round" stroke-width="1"/>
      </g>
      <g id="Graphic_101">
        <rect x="370.6953" y="213.5" width="30" height="30" fill="white"/>
        <rect x="370.6953" y="213.5" width="30" height="30" stroke="gray" stroke-linecap="round" stroke-linejoin="round" stroke-width="1"/>
      </g>
      <g id="Graphic_100">
        <rect x="400.6953" y="213.5" width="30" height="30" fill="white"/>
        <rect x="400.6953" y="213.5" width="30" height="30" stroke="gray" stroke-linecap="round" stroke-linejoin="round" stroke-width="1"/>
      </g>
      <g id="Graphic_99">
        <rect x="370.6953" y="243.5" width="30" height="30" fill="white"/>
        <rect x="370.6953" y="243.5" width="30" height="30" stroke="gray" stroke-linecap="round" stroke-linejoin="round" stroke-width="1"/>
      </g>
      <g id="Graphic_98">
        <rect x="400.6953" y="243.5" width="30" height="30" fill="white"/>
        <rect x="400.6953" y="243.5" width="30" height="30" stroke="gray" stroke-linecap="round" stroke-linejoin="round" stroke-width="1"/>
      </g>
      <g id="Graphic_97">
        <rect x="310.6953" y="274.13147" width="30" height="30" fill="white"/>
        <rect x="310.6953" y="274.13147" width="30" height="30" stroke="gray" stroke-linecap="round" stroke-linejoin="round" stroke-width="1"/>
      </g>
      <g id="Graphic_96">
        <rect x="340.6953" y="274.13147" width="30" height="30" fill="white"/>
        <rect x="340.6953" y="274.13147" width="30" height="30" stroke="gray" stroke-linecap="round" stroke-linejoin="round" stroke-width="1"/>
      </g>
      <g id="Graphic_95">
        <rect x="310.6953" y="304.13147" width="30" height="30" fill="white"/>
        <rect x="310.6953" y="304.13147" width="30" height="30" stroke="gray" stroke-linecap="round" stroke-linejoin="round" stroke-width="1"/>
      </g>
      <g id="Graphic_94">
        <rect x="340.6953" y="304.13147" width="30" height="30" fill="white"/>
        <rect x="340.6953" y="304.13147" width="30" height="30" stroke="gray" stroke-linecap="round" stroke-linejoin="round" stroke-width="1"/>
      </g>
      <g id="Graphic_93">
        <rect x="370.6953" y="274.13147" width="30" height="30" fill="white"/>
        <rect x="370.6953" y="274.13147" width="30" height="30" stroke="gray" stroke-linecap="round" stroke-linejoin="round" stroke-width="1"/>
      </g>
      <g id="Graphic_92">
        <rect x="400.6953" y="274.13147" width="30" height="30" fill="white"/>
        <rect x="400.6953" y="274.13147" width="30" height="30" stroke="gray" stroke-linecap="round" stroke-linejoin="round" stroke-width="1"/>
      </g>
      <g id="Graphic_91">
        <rect x="370.6953" y="304.13147" width="30" height="30" fill="white"/>
        <rect x="370.6953" y="304.13147" width="30" height="30" stroke="gray" stroke-linecap="round" stroke-linejoin="round" stroke-width="1"/>
      </g>
      <g id="Graphic_90">
        <rect x="400.6953" y="304.13147" width="30" height="30" fill="white"/>
        <rect x="400.6953" y="304.13147" width="30" height="30" stroke="gray" stroke-linecap="round" stroke-linejoin="round" stroke-width="1"/>
      </g>
      <g id="Graphic_89">
        <rect x="310.6953" y="334.13147" width="30" height="30" fill="white"/>
        <rect x="310.6953" y="334.13147" width="30" height="30" stroke="gray" stroke-linecap="round" stroke-linejoin="round" stroke-width="1"/>
      </g>
      <g id="Graphic_88">
        <rect x="340.6953" y="334.13147" width="30" height="30" fill="white"/>
        <rect x="340.6953" y="334.13147" width="30" height="30" stroke="gray" stroke-linecap="round" stroke-linejoin="round" stroke-width="1"/>
      </g>
      <g id="Graphic_87">
        <rect x="310.6953" y="364.13147" width="30" height="30" fill="white"/>
        <rect x="310.6953" y="364.13147" width="30" height="30" stroke="gray" stroke-linecap="round" stroke-linejoin="round" stroke-width="1"/>
      </g>
      <g id="Graphic_86">
        <rect x="340.6953" y="364.13147" width="30" height="30" fill="white"/>
        <rect x="340.6953" y="364.13147" width="30" height="30" stroke="gray" stroke-linecap="round" stroke-linejoin="round" stroke-width="1"/>
      </g>
      <g id="Graphic_85">
        <rect x="370.6953" y="334.13147" width="30" height="30" fill="white"/>
        <rect x="370.6953" y="334.13147" width="30" height="30" stroke="gray" stroke-linecap="round" stroke-linejoin="round" stroke-width="1"/>
      </g>
      <g id="Graphic_84">
        <rect x="400.6953" y="334.13147" width="30" height="30" fill="white"/>
        <rect x="400.6953" y="334.13147" width="30" height="30" stroke="gray" stroke-linecap="round" stroke-linejoin="round" stroke-width="1"/>
      </g>
      <g id="Graphic_83">
        <rect x="370.6953" y="364.13147" width="30" height="30" fill="white"/>
        <rect x="370.6953" y="364.13147" width="30" height="30" stroke="gray" stroke-linecap="round" stroke-linejoin="round" stroke-width="1"/>
      </g>
      <g id="Graphic_82">
        <rect x="400.6953" y="364.13147" width="30" height="30" fill="white"/>
        <rect x="400.6953" y="364.13147" width="30" height="30" stroke="gray" stroke-linecap="round" stroke-linejoin="round" stroke-width="1"/>
      </g>
      <g id="Graphic_129">
        <rect x="310.6953" y="3.5" width="30" height="30" fill="white"/>
        <rect x="310.6953" y="3.5" width="30" height="30" stroke="gray" stroke-linecap="round" stroke-linejoin="round" stroke-width="1"/>
      </g>
      <g id="Graphic_128">
        <rect x="340.6953" y="3.5" width="30" height="30" fill="white"/>
        <rect x="340.6953" y="3.5" width="30" height="30" stroke="gray" stroke-linecap="round" stroke-linejoin="round" stroke-width="1"/>
      </g>
      <g id="Graphic_127">
        <rect x="310.6953" y="33.5" width="30" height="30" fill="#ffc0c0"/>
        <rect x="310.6953" y="33.5" width="30" height="30" stroke="gray" stroke-linecap="round" stroke-linejoin="round" stroke-width="1"/>
      </g>
      <g id="Graphic_126">
        <rect x="340.6953" y="33.5" width="30" height="30" fill="#ffc0c0"/>
        <rect x="340.6953" y="33.5" width="30" height="30" stroke="gray" stroke-linecap="round" stroke-linejoin="round" stroke-width="1"/>
      </g>
      <g id="Graphic_125">
        <rect x="370.6953" y="3.5" width="30" height="30" fill="white"/>
        <rect x="370.6953" y="3.5" width="30" height="30" stroke="gray" stroke-linecap="round" stroke-linejoin="round" stroke-width="1"/>
      </g>
      <g id="Graphic_124">
        <rect x="400.6953" y="3.5" width="30" height="30" fill="white"/>
        <rect x="400.6953" y="3.5" width="30" height="30" stroke="gray" stroke-linecap="round" stroke-linejoin="round" stroke-width="1"/>
      </g>
      <g id="Graphic_123">
        <rect x="370.6953" y="33.5" width="30" height="30" fill="#ffc0c0"/>
        <rect x="370.6953" y="33.5" width="30" height="30" stroke="gray" stroke-linecap="round" stroke-linejoin="round" stroke-width="1"/>
      </g>
      <g id="Graphic_122">
        <rect x="400.6953" y="33.5" width="30" height="30" fill="#ffc0c0"/>
        <rect x="400.6953" y="33.5" width="30" height="30" stroke="gray" stroke-linecap="round" stroke-linejoin="round" stroke-width="1"/>
      </g>
      <g id="Graphic_121">
        <rect x="310.6953" y="63.5" width="30" height="30" fill="white"/>
        <rect x="310.6953" y="63.5" width="30" height="30" stroke="gray" stroke-linecap="round" stroke-linejoin="round" stroke-width="1"/>
      </g>
      <g id="Graphic_120">
        <rect x="340.6953" y="63.5" width="30" height="30" fill="white"/>
        <rect x="340.6953" y="63.5" width="30" height="30" stroke="gray" stroke-linecap="round" stroke-linejoin="round" stroke-width="1"/>
      </g>
      <g id="Graphic_119">
        <rect x="310.6953" y="93.5" width="30" height="30" fill="white"/>
        <rect x="310.6953" y="93.5" width="30" height="30" stroke="gray" stroke-linecap="round" stroke-linejoin="round" stroke-width="1"/>
      </g>
      <g id="Graphic_118">
        <rect x="340.6953" y="93.5" width="30" height="30" fill="white"/>
        <rect x="340.6953" y="93.5" width="30" height="30" stroke="gray" stroke-linecap="round" stroke-linejoin="round" stroke-width="1"/>
      </g>
      <g id="Graphic_117">
        <rect x="370.6953" y="63.5" width="30" height="30" fill="white"/>
        <rect x="370.6953" y="63.5" width="30" height="30" stroke="gray" stroke-linecap="round" stroke-linejoin="round" stroke-width="1"/>
      </g>
      <g id="Graphic_116">
        <rect x="400.6953" y="63.5" width="30" height="30" fill="white"/>
        <rect x="400.6953" y="63.5" width="30" height="30" stroke="gray" stroke-linecap="round" stroke-linejoin="round" stroke-width="1"/>
      </g>
      <g id="Graphic_115">
        <rect x="370.6953" y="93.5" width="30" height="30" fill="white"/>
        <rect x="370.6953" y="93.5" width="30" height="30" stroke="gray" stroke-linecap="round" stroke-linejoin="round" stroke-width="1"/>
      </g>
      <g id="Graphic_114">
        <rect x="400.6953" y="93.5" width="30" height="30" fill="white"/>
        <rect x="400.6953" y="93.5" width="30" height="30" stroke="gray" stroke-linecap="round" stroke-linejoin="round" stroke-width="1"/>
      </g>
      <g id="Graphic_133">
        <rect x="190.69531" y="93.5" width="30" height="30" fill="white"/>
        <rect x="190.69531" y="93.5" width="30" height="30" stroke="gray" stroke-linecap="round" stroke-linejoin="round" stroke-width="1"/>
      </g>
      <g id="Graphic_132">
        <rect x="220.6953" y="93.5" width="30" height="30" fill="white"/>
        <rect x="220.6953" y="93.5" width="30" height="30" stroke="gray" stroke-linecap="round" stroke-linejoin="round" stroke-width="1"/>
      </g>
      <g id="Graphic_131">
        <rect x="250.6953" y="93.5" width="30" height="30" fill="white"/>
        <rect x="250.6953" y="93.5" width="30" height="30" stroke="gray" stroke-linecap="round" stroke-linejoin="round" stroke-width="1"/>
      </g>
      <g id="Graphic_130">
        <rect x="280.6953" y="93.5" width="30" height="30" fill="white"/>
        <rect x="280.6953" y="93.5" width="30" height="30" stroke="gray" stroke-linecap="round" stroke-linejoin="round" stroke-width="1"/>
      </g>
      <g id="Line_134">
        <path d="M 87.21505 154.13147 C 90.05162 135.39037 98.12803 102.99233 121 80 C 143.4094 57.47267 173.07588 50.957095 190.69531 49.13259" stroke="#7f8080" stroke-linecap="round" stroke-linejoin="round" stroke-dasharray="4.0,4.0" stroke-width="1"/>
      </g>
    </g>
  </g>
</svg>
