<?xml version="1.0" encoding="UTF-8" standalone="no"?>
<!DOCTYPE svg PUBLIC "-//W3C//DTD SVG 1.1//EN" "http://www.w3.org/Graphics/SVG/1.1/DTD/svg11.dtd">
<svg xmlns="http://www.w3.org/2000/svg" xmlns:dc="http://purl.org/dc/elements/1.1/" version="1.1" xmlns:xl="http://www.w3.org/1999/xlink" viewBox="24 153 490 441" width="490" height="441">
  <defs/>
  <g id="Canvas_2" stroke-opacity="1" stroke="none" fill="none" fill-opacity="1" stroke-dasharray="none">
    <title>2</title>
    <g id="Canvas_2_Layer_1">
      <title>Layer 1</title>
      <g id="Graphic_210">
        <rect x="54.46397" y="304.63147" width="30" height="30" fill="red"/>
        <rect x="54.46397" y="304.63147" width="30" height="30" stroke="gray" stroke-linecap="round" stroke-linejoin="round" stroke-width="1"/>
      </g>
      <g id="Graphic_209">
        <rect x="84.46397" y="304.63147" width="30" height="30" fill="red"/>
        <rect x="84.46397" y="304.63147" width="30" height="30" stroke="gray" stroke-linecap="round" stroke-linejoin="round" stroke-width="1"/>
      </g>
      <g id="Graphic_208">
        <rect x="54.46397" y="334.63147" width="30" height="30" fill="red"/>
        <rect x="54.46397" y="334.63147" width="30" height="30" stroke="gray" stroke-linecap="round" stroke-linejoin="round" stroke-width="1"/>
      </g>
      <g id="Graphic_207">
        <rect x="84.46397" y="334.63147" width="30" height="30" fill="red"/>
        <rect x="84.46397" y="334.63147" width="30" height="30" stroke="gray" stroke-linecap="round" stroke-linejoin="round" stroke-width="1"/>
      </g>
      <g id="Graphic_206">
        <rect x="54.46397" y="364.63147" width="30" height="30" fill="white"/>
        <rect x="54.46397" y="364.63147" width="30" height="30" stroke="gray" stroke-linecap="round" stroke-linejoin="round" stroke-width="1"/>
      </g>
      <g id="Graphic_205">
        <rect x="84.46397" y="364.63147" width="30" height="30" fill="white"/>
        <rect x="84.46397" y="364.63147" width="30" height="30" stroke="gray" stroke-linecap="round" stroke-linejoin="round" stroke-width="1"/>
      </g>
      <g id="Graphic_204">
        <rect x="54.46397" y="394.63147" width="30" height="30" fill="white"/>
        <rect x="54.46397" y="394.63147" width="30" height="30" stroke="gray" stroke-linecap="round" stroke-linejoin="round" stroke-width="1"/>
      </g>
      <g id="Graphic_203">
        <rect x="84.46397" y="394.63147" width="30" height="30" fill="white"/>
        <rect x="84.46397" y="394.63147" width="30" height="30" stroke="gray" stroke-linecap="round" stroke-linejoin="round" stroke-width="1"/>
      </g>
      <g id="Graphic_202">
        <rect x="233.2374" y="154" width="30" height="30" fill="#ffc0c0"/>
        <rect x="233.2374" y="154" width="30" height="30" stroke="gray" stroke-linecap="round" stroke-linejoin="round" stroke-width="1"/>
      </g>
      <g id="Graphic_201">
        <rect x="263.2374" y="154" width="30" height="30" fill="#ffc0c0"/>
        <rect x="263.2374" y="154" width="30" height="30" stroke="gray" stroke-linecap="round" stroke-linejoin="round" stroke-width="1"/>
      </g>
      <g id="Graphic_200">
        <rect x="233.2374" y="184" width="30" height="30" fill="#ffc0c0"/>
        <rect x="233.2374" y="184" width="30" height="30" stroke="gray" stroke-linecap="round" stroke-linejoin="round" stroke-width="1"/>
      </g>
      <g id="Graphic_199">
        <rect x="263.2374" y="184" width="30" height="30" fill="#ffc0c0"/>
        <rect x="263.2374" y="184" width="30" height="30" stroke="gray" stroke-linecap="round" stroke-linejoin="round" stroke-width="1"/>
      </g>
      <g id="Graphic_198">
        <rect x="293.2374" y="154" width="30" height="30" fill="#ffc0c0"/>
        <rect x="293.2374" y="154" width="30" height="30" stroke="gray" stroke-linecap="round" stroke-linejoin="round" stroke-width="1"/>
      </g>
      <g id="Graphic_197">
        <rect x="323.2374" y="154" width="30" height="30" fill="#ffc0c0"/>
        <rect x="323.2374" y="154" width="30" height="30" stroke="gray" stroke-linecap="round" stroke-linejoin="round" stroke-width="1"/>
      </g>
      <g id="Graphic_196">
        <rect x="293.2374" y="184" width="30" height="30" fill="#ffc0c0"/>
        <rect x="293.2374" y="184" width="30" height="30" stroke="gray" stroke-linecap="round" stroke-linejoin="round" stroke-width="1"/>
      </g>
      <g id="Graphic_195">
        <rect x="323.2374" y="184" width="30" height="30" fill="#ffc0c0"/>
        <rect x="323.2374" y="184" width="30" height="30" stroke="gray" stroke-linecap="round" stroke-linejoin="round" stroke-width="1"/>
      </g>
      <g id="Graphic_194">
        <rect x="233.2374" y="304" width="30" height="30" fill="white"/>
        <rect x="233.2374" y="304" width="30" height="30" stroke="gray" stroke-linecap="round" stroke-linejoin="round" stroke-width="1"/>
      </g>
      <g id="Graphic_193">
        <rect x="263.2374" y="304" width="30" height="30" fill="white"/>
        <rect x="263.2374" y="304" width="30" height="30" stroke="gray" stroke-linecap="round" stroke-linejoin="round" stroke-width="1"/>
      </g>
      <g id="Graphic_192">
        <rect x="233.2374" y="334" width="30" height="30" fill="white"/>
        <rect x="233.2374" y="334" width="30" height="30" stroke="gray" stroke-linecap="round" stroke-linejoin="round" stroke-width="1"/>
      </g>
      <g id="Graphic_191">
        <rect x="263.2374" y="334" width="30" height="30" fill="white"/>
        <rect x="263.2374" y="334" width="30" height="30" stroke="gray" stroke-linecap="round" stroke-linejoin="round" stroke-width="1"/>
      </g>
      <g id="Graphic_190">
        <rect x="293.2374" y="304" width="30" height="30" fill="white"/>
        <rect x="293.2374" y="304" width="30" height="30" stroke="gray" stroke-linecap="round" stroke-linejoin="round" stroke-width="1"/>
      </g>
      <g id="Graphic_189">
        <rect x="323.2374" y="304" width="30" height="30" fill="white"/>
        <rect x="323.2374" y="304" width="30" height="30" stroke="gray" stroke-linecap="round" stroke-linejoin="round" stroke-width="1"/>
      </g>
      <g id="Graphic_188">
        <rect x="293.2374" y="334" width="30" height="30" fill="white"/>
        <rect x="293.2374" y="334" width="30" height="30" stroke="gray" stroke-linecap="round" stroke-linejoin="round" stroke-width="1"/>
      </g>
      <g id="Graphic_187">
        <rect x="323.2374" y="334" width="30" height="30" fill="white"/>
        <rect x="323.2374" y="334" width="30" height="30" stroke="gray" stroke-linecap="round" stroke-linejoin="round" stroke-width="1"/>
      </g>
      <g id="Graphic_186">
        <rect x="233.2374" y="364" width="30" height="30" fill="white"/>
        <rect x="233.2374" y="364" width="30" height="30" stroke="gray" stroke-linecap="round" stroke-linejoin="round" stroke-width="1"/>
      </g>
      <g id="Graphic_185">
        <rect x="263.2374" y="364" width="30" height="30" fill="white"/>
        <rect x="263.2374" y="364" width="30" height="30" stroke="gray" stroke-linecap="round" stroke-linejoin="round" stroke-width="1"/>
      </g>
      <g id="Graphic_184">
        <rect x="233.2374" y="394" width="30" height="30" fill="white"/>
        <rect x="233.2374" y="394" width="30" height="30" stroke="gray" stroke-linecap="round" stroke-linejoin="round" stroke-width="1"/>
      </g>
      <g id="Graphic_183">
        <rect x="263.2374" y="394" width="30" height="30" fill="white"/>
        <rect x="263.2374" y="394" width="30" height="30" stroke="gray" stroke-linecap="round" stroke-linejoin="round" stroke-width="1"/>
      </g>
      <g id="Graphic_182">
        <rect x="293.2374" y="364" width="30" height="30" fill="white"/>
        <rect x="293.2374" y="364" width="30" height="30" stroke="gray" stroke-linecap="round" stroke-linejoin="round" stroke-width="1"/>
      </g>
      <g id="Graphic_181">
        <rect x="323.2374" y="364" width="30" height="30" fill="white"/>
        <rect x="323.2374" y="364" width="30" height="30" stroke="gray" stroke-linecap="round" stroke-linejoin="round" stroke-width="1"/>
      </g>
      <g id="Graphic_180">
        <rect x="293.2374" y="394" width="30" height="30" fill="white"/>
        <rect x="293.2374" y="394" width="30" height="30" stroke="gray" stroke-linecap="round" stroke-linejoin="round" stroke-width="1"/>
      </g>
      <g id="Graphic_179">
        <rect x="323.2374" y="394" width="30" height="30" fill="white"/>
        <rect x="323.2374" y="394" width="30" height="30" stroke="gray" stroke-linecap="round" stroke-linejoin="round" stroke-width="1"/>
      </g>
      <g id="Graphic_178">
        <text transform="translate(29 354.776)" fill="black">
          <tspan font-family="Helvetica Neue" font-size="16" fill="black" x="2762235e-19" y="15" xml:space="preserve">a</tspan>
        </text>
      </g>
      <g id="Graphic_177">
        <text transform="translate(499.38194 220.552)" fill="black">
          <tspan font-family="Helvetica Neue" font-size="16" fill="black" x="5968559e-19" y="15" xml:space="preserve">b</tspan>
        </text>
      </g>
      <g id="Graphic_176">
        <text transform="translate(363.9414 570.1133)" fill="black">
          <tspan font-family="Helvetica Neue" font-size="16" fill="black" x="2762235e-19" y="15" xml:space="preserve">c</tspan>
        </text>
      </g>
      <g id="Graphic_175">
        <rect x="233.2374" y="214" width="30" height="30" fill="white"/>
        <rect x="233.2374" y="214" width="30" height="30" stroke="gray" stroke-linecap="round" stroke-linejoin="round" stroke-width="1"/>
      </g>
      <g id="Graphic_174">
        <rect x="263.2374" y="214" width="30" height="30" fill="white"/>
        <rect x="263.2374" y="214" width="30" height="30" stroke="gray" stroke-linecap="round" stroke-linejoin="round" stroke-width="1"/>
      </g>
      <g id="Graphic_173">
        <rect x="293.2374" y="214" width="30" height="30" fill="white"/>
        <rect x="293.2374" y="214" width="30" height="30" stroke="gray" stroke-linecap="round" stroke-linejoin="round" stroke-width="1"/>
      </g>
      <g id="Graphic_172">
        <rect x="323.2374" y="214" width="30" height="30" fill="white"/>
        <rect x="323.2374" y="214" width="30" height="30" stroke="gray" stroke-linecap="round" stroke-linejoin="round" stroke-width="1"/>
      </g>
      <g id="Graphic_171">
        <rect x="114.46397" y="304" width="30" height="30" fill="white"/>
        <rect x="114.46397" y="304" width="30" height="30" stroke="gray" stroke-linecap="round" stroke-linejoin="round" stroke-width="1"/>
      </g>
      <g id="Graphic_170">
        <rect x="114.46397" y="334" width="30" height="30" fill="white"/>
        <rect x="114.46397" y="334" width="30" height="30" stroke="gray" stroke-linecap="round" stroke-linejoin="round" stroke-width="1"/>
      </g>
      <g id="Graphic_169">
        <rect x="114.46397" y="364" width="30" height="30" fill="white"/>
        <rect x="114.46397" y="364" width="30" height="30" stroke="gray" stroke-linecap="round" stroke-linejoin="round" stroke-width="1"/>
      </g>
      <g id="Graphic_168">
        <rect x="114.46397" y="394" width="30" height="30" fill="white"/>
        <rect x="114.46397" y="394" width="30" height="30" stroke="gray" stroke-linecap="round" stroke-linejoin="round" stroke-width="1"/>
      </g>
      <g id="Graphic_167">
        <rect x="144.46397" y="304" width="30" height="30" fill="white"/>
        <rect x="144.46397" y="304" width="30" height="30" stroke="gray" stroke-linecap="round" stroke-linejoin="round" stroke-width="1"/>
      </g>
      <g id="Graphic_166">
        <rect x="144.46397" y="334" width="30" height="30" fill="white"/>
        <rect x="144.46397" y="334" width="30" height="30" stroke="gray" stroke-linecap="round" stroke-linejoin="round" stroke-width="1"/>
      </g>
      <g id="Graphic_165">
        <rect x="144.46397" y="364" width="30" height="30" fill="white"/>
        <rect x="144.46397" y="364" width="30" height="30" stroke="gray" stroke-linecap="round" stroke-linejoin="round" stroke-width="1"/>
      </g>
      <g id="Graphic_164">
        <rect x="144.46397" y="394" width="30" height="30" fill="white"/>
        <rect x="144.46397" y="394" width="30" height="30" stroke="gray" stroke-linecap="round" stroke-linejoin="round" stroke-width="1"/>
      </g>
      <g id="Graphic_163">
        <rect x="54.46397" y="424.63147" width="30" height="30" fill="white"/>
        <rect x="54.46397" y="424.63147" width="30" height="30" stroke="gray" stroke-linecap="round" stroke-linejoin="round" stroke-width="1"/>
      </g>
      <g id="Graphic_162">
        <rect x="84.46397" y="424.63147" width="30" height="30" fill="white"/>
        <rect x="84.46397" y="424.63147" width="30" height="30" stroke="gray" stroke-linecap="round" stroke-linejoin="round" stroke-width="1"/>
      </g>
      <g id="Graphic_161">
        <rect x="54.46397" y="454.63147" width="30" height="30" fill="white"/>
        <rect x="54.46397" y="454.63147" width="30" height="30" stroke="gray" stroke-linecap="round" stroke-linejoin="round" stroke-width="1"/>
      </g>
      <g id="Graphic_160">
        <rect x="84.46397" y="454.63147" width="30" height="30" fill="white"/>
        <rect x="84.46397" y="454.63147" width="30" height="30" stroke="gray" stroke-linecap="round" stroke-linejoin="round" stroke-width="1"/>
      </g>
      <g id="Graphic_159">
        <rect x="114.46397" y="424.63147" width="30" height="30" fill="white"/>
        <rect x="114.46397" y="424.63147" width="30" height="30" stroke="gray" stroke-linecap="round" stroke-linejoin="round" stroke-width="1"/>
      </g>
      <g id="Graphic_158">
        <rect x="144.46397" y="424.63147" width="30" height="30" fill="white"/>
        <rect x="144.46397" y="424.63147" width="30" height="30" stroke="gray" stroke-linecap="round" stroke-linejoin="round" stroke-width="1"/>
      </g>
      <g id="Graphic_157">
        <rect x="114.46397" y="454.63147" width="30" height="30" fill="white"/>
        <rect x="114.46397" y="454.63147" width="30" height="30" stroke="gray" stroke-linecap="round" stroke-linejoin="round" stroke-width="1"/>
      </g>
      <g id="Graphic_156">
        <rect x="144.46397" y="454.63147" width="30" height="30" fill="white"/>
        <rect x="144.46397" y="454.63147" width="30" height="30" stroke="gray" stroke-linecap="round" stroke-linejoin="round" stroke-width="1"/>
      </g>
      <g id="Graphic_155">
        <rect x="54.46397" y="484.63147" width="30" height="30" fill="white"/>
        <rect x="54.46397" y="484.63147" width="30" height="30" stroke="gray" stroke-linecap="round" stroke-linejoin="round" stroke-width="1"/>
      </g>
      <g id="Graphic_154">
        <rect x="84.46397" y="484.63147" width="30" height="30" fill="white"/>
        <rect x="84.46397" y="484.63147" width="30" height="30" stroke="gray" stroke-linecap="round" stroke-linejoin="round" stroke-width="1"/>
      </g>
      <g id="Graphic_153">
        <rect x="54.46397" y="514.6315" width="30" height="30" fill="white"/>
        <rect x="54.46397" y="514.6315" width="30" height="30" stroke="gray" stroke-linecap="round" stroke-linejoin="round" stroke-width="1"/>
      </g>
      <g id="Graphic_152">
        <rect x="84.46397" y="514.6315" width="30" height="30" fill="white"/>
        <rect x="84.46397" y="514.6315" width="30" height="30" stroke="gray" stroke-linecap="round" stroke-linejoin="round" stroke-width="1"/>
      </g>
      <g id="Graphic_151">
        <rect x="114.46397" y="484.63147" width="30" height="30" fill="white"/>
        <rect x="114.46397" y="484.63147" width="30" height="30" stroke="gray" stroke-linecap="round" stroke-linejoin="round" stroke-width="1"/>
      </g>
      <g id="Graphic_150">
        <rect x="144.46397" y="484.63147" width="30" height="30" fill="white"/>
        <rect x="144.46397" y="484.63147" width="30" height="30" stroke="gray" stroke-linecap="round" stroke-linejoin="round" stroke-width="1"/>
      </g>
      <g id="Graphic_149">
        <rect x="114.46397" y="514.6315" width="30" height="30" fill="white"/>
        <rect x="114.46397" y="514.6315" width="30" height="30" stroke="gray" stroke-linecap="round" stroke-linejoin="round" stroke-width="1"/>
      </g>
      <g id="Graphic_148">
        <rect x="144.46397" y="514.6315" width="30" height="30" fill="white"/>
        <rect x="144.46397" y="514.6315" width="30" height="30" stroke="gray" stroke-linecap="round" stroke-linejoin="round" stroke-width="1"/>
      </g>
      <g id="Graphic_147">
        <rect x="233.2374" y="424.63147" width="30" height="30" fill="white"/>
        <rect x="233.2374" y="424.63147" width="30" height="30" stroke="gray" stroke-linecap="round" stroke-linejoin="round" stroke-width="1"/>
      </g>
      <g id="Graphic_146">
        <rect x="263.2374" y="424.63147" width="30" height="30" fill="white"/>
        <rect x="263.2374" y="424.63147" width="30" height="30" stroke="gray" stroke-linecap="round" stroke-linejoin="round" stroke-width="1"/>
      </g>
      <g id="Graphic_145">
        <rect x="233.2374" y="454.63147" width="30" height="30" fill="white"/>
        <rect x="233.2374" y="454.63147" width="30" height="30" stroke="gray" stroke-linecap="round" stroke-linejoin="round" stroke-width="1"/>
      </g>
      <g id="Graphic_144">
        <rect x="263.2374" y="454.63147" width="30" height="30" fill="white"/>
        <rect x="263.2374" y="454.63147" width="30" height="30" stroke="gray" stroke-linecap="round" stroke-linejoin="round" stroke-width="1"/>
      </g>
      <g id="Graphic_143">
        <rect x="293.2374" y="424.63147" width="30" height="30" fill="white"/>
        <rect x="293.2374" y="424.63147" width="30" height="30" stroke="gray" stroke-linecap="round" stroke-linejoin="round" stroke-width="1"/>
      </g>
      <g id="Graphic_142">
        <rect x="323.2374" y="424.63147" width="30" height="30" fill="white"/>
        <rect x="323.2374" y="424.63147" width="30" height="30" stroke="gray" stroke-linecap="round" stroke-linejoin="round" stroke-width="1"/>
      </g>
      <g id="Graphic_141">
        <rect x="293.2374" y="454.63147" width="30" height="30" fill="white"/>
        <rect x="293.2374" y="454.63147" width="30" height="30" stroke="gray" stroke-linecap="round" stroke-linejoin="round" stroke-width="1"/>
      </g>
      <g id="Graphic_140">
        <rect x="323.2374" y="454.63147" width="30" height="30" fill="white"/>
        <rect x="323.2374" y="454.63147" width="30" height="30" stroke="gray" stroke-linecap="round" stroke-linejoin="round" stroke-width="1"/>
      </g>
      <g id="Graphic_139">
        <rect x="233.2374" y="484.63147" width="30" height="30" fill="white"/>
        <rect x="233.2374" y="484.63147" width="30" height="30" stroke="gray" stroke-linecap="round" stroke-linejoin="round" stroke-width="1"/>
      </g>
      <g id="Graphic_138">
        <rect x="263.2374" y="484.63147" width="30" height="30" fill="white"/>
        <rect x="263.2374" y="484.63147" width="30" height="30" stroke="gray" stroke-linecap="round" stroke-linejoin="round" stroke-width="1"/>
      </g>
      <g id="Graphic_137">
        <rect x="233.2374" y="514.6315" width="30" height="30" fill="white"/>
        <rect x="233.2374" y="514.6315" width="30" height="30" stroke="gray" stroke-linecap="round" stroke-linejoin="round" stroke-width="1"/>
      </g>
      <g id="Graphic_136">
        <rect x="263.2374" y="514.6315" width="30" height="30" fill="white"/>
        <rect x="263.2374" y="514.6315" width="30" height="30" stroke="gray" stroke-linecap="round" stroke-linejoin="round" stroke-width="1"/>
      </g>
      <g id="Graphic_135">
        <rect x="293.2374" y="484.63147" width="30" height="30" fill="white"/>
        <rect x="293.2374" y="484.63147" width="30" height="30" stroke="gray" stroke-linecap="round" stroke-linejoin="round" stroke-width="1"/>
      </g>
      <g id="Graphic_134">
        <rect x="323.2374" y="484.63147" width="30" height="30" fill="white"/>
        <rect x="323.2374" y="484.63147" width="30" height="30" stroke="gray" stroke-linecap="round" stroke-linejoin="round" stroke-width="1"/>
      </g>
      <g id="Graphic_133">
        <rect x="293.2374" y="514.6315" width="30" height="30" fill="white"/>
        <rect x="293.2374" y="514.6315" width="30" height="30" stroke="gray" stroke-linecap="round" stroke-linejoin="round" stroke-width="1"/>
      </g>
      <g id="Graphic_132">
        <rect x="323.2374" y="514.6315" width="30" height="30" fill="white"/>
        <rect x="323.2374" y="514.6315" width="30" height="30" stroke="gray" stroke-linecap="round" stroke-linejoin="round" stroke-width="1"/>
      </g>
      <g id="Graphic_131">
        <rect x="353.2374" y="304" width="30" height="30" fill="white"/>
        <rect x="353.2374" y="304" width="30" height="30" stroke="gray" stroke-linecap="round" stroke-linejoin="round" stroke-width="1"/>
      </g>
      <g id="Graphic_130">
        <rect x="383.2374" y="304" width="30" height="30" fill="white"/>
        <rect x="383.2374" y="304" width="30" height="30" stroke="gray" stroke-linecap="round" stroke-linejoin="round" stroke-width="1"/>
      </g>
      <g id="Graphic_129">
        <rect x="353.2374" y="334" width="30" height="30" fill="white"/>
        <rect x="353.2374" y="334" width="30" height="30" stroke="gray" stroke-linecap="round" stroke-linejoin="round" stroke-width="1"/>
      </g>
      <g id="Graphic_128">
        <rect x="383.2374" y="334" width="30" height="30" fill="white"/>
        <rect x="383.2374" y="334" width="30" height="30" stroke="gray" stroke-linecap="round" stroke-linejoin="round" stroke-width="1"/>
      </g>
      <g id="Graphic_127">
        <rect x="413.2374" y="304" width="30" height="30" fill="white"/>
        <rect x="413.2374" y="304" width="30" height="30" stroke="gray" stroke-linecap="round" stroke-linejoin="round" stroke-width="1"/>
      </g>
      <g id="Graphic_126">
        <rect x="443.2374" y="304" width="30" height="30" fill="white"/>
        <rect x="443.2374" y="304" width="30" height="30" stroke="gray" stroke-linecap="round" stroke-linejoin="round" stroke-width="1"/>
      </g>
      <g id="Graphic_125">
        <rect x="413.2374" y="334" width="30" height="30" fill="white"/>
        <rect x="413.2374" y="334" width="30" height="30" stroke="gray" stroke-linecap="round" stroke-linejoin="round" stroke-width="1"/>
      </g>
      <g id="Graphic_124">
        <rect x="443.2374" y="334" width="30" height="30" fill="white"/>
        <rect x="443.2374" y="334" width="30" height="30" stroke="gray" stroke-linecap="round" stroke-linejoin="round" stroke-width="1"/>
      </g>
      <g id="Graphic_123">
        <rect x="353.2374" y="364" width="30" height="30" fill="white"/>
        <rect x="353.2374" y="364" width="30" height="30" stroke="gray" stroke-linecap="round" stroke-linejoin="round" stroke-width="1"/>
      </g>
      <g id="Graphic_122">
        <rect x="383.2374" y="364" width="30" height="30" fill="white"/>
        <rect x="383.2374" y="364" width="30" height="30" stroke="gray" stroke-linecap="round" stroke-linejoin="round" stroke-width="1"/>
      </g>
      <g id="Graphic_121">
        <rect x="353.2374" y="394" width="30" height="30" fill="white"/>
        <rect x="353.2374" y="394" width="30" height="30" stroke="gray" stroke-linecap="round" stroke-linejoin="round" stroke-width="1"/>
      </g>
      <g id="Graphic_120">
        <rect x="383.2374" y="394" width="30" height="30" fill="white"/>
        <rect x="383.2374" y="394" width="30" height="30" stroke="gray" stroke-linecap="round" stroke-linejoin="round" stroke-width="1"/>
      </g>
      <g id="Graphic_119">
        <rect x="413.2374" y="364" width="30" height="30" fill="white"/>
        <rect x="413.2374" y="364" width="30" height="30" stroke="gray" stroke-linecap="round" stroke-linejoin="round" stroke-width="1"/>
      </g>
      <g id="Graphic_118">
        <rect x="443.2374" y="364" width="30" height="30" fill="white"/>
        <rect x="443.2374" y="364" width="30" height="30" stroke="gray" stroke-linecap="round" stroke-linejoin="round" stroke-width="1"/>
      </g>
      <g id="Graphic_117">
        <rect x="413.2374" y="394" width="30" height="30" fill="white"/>
        <rect x="413.2374" y="394" width="30" height="30" stroke="gray" stroke-linecap="round" stroke-linejoin="round" stroke-width="1"/>
      </g>
      <g id="Graphic_116">
        <rect x="443.2374" y="394" width="30" height="30" fill="white"/>
        <rect x="443.2374" y="394" width="30" height="30" stroke="gray" stroke-linecap="round" stroke-linejoin="round" stroke-width="1"/>
      </g>
      <g id="Graphic_115">
        <rect x="353.2374" y="424.63147" width="30" height="30" fill="white"/>
        <rect x="353.2374" y="424.63147" width="30" height="30" stroke="gray" stroke-linecap="round" stroke-linejoin="round" stroke-width="1"/>
      </g>
      <g id="Graphic_114">
        <rect x="383.2374" y="424.63147" width="30" height="30" fill="white"/>
        <rect x="383.2374" y="424.63147" width="30" height="30" stroke="gray" stroke-linecap="round" stroke-linejoin="round" stroke-width="1"/>
      </g>
      <g id="Graphic_113">
        <rect x="353.2374" y="454.63147" width="30" height="30" fill="white"/>
        <rect x="353.2374" y="454.63147" width="30" height="30" stroke="gray" stroke-linecap="round" stroke-linejoin="round" stroke-width="1"/>
      </g>
      <g id="Graphic_112">
        <rect x="383.2374" y="454.63147" width="30" height="30" fill="white"/>
        <rect x="383.2374" y="454.63147" width="30" height="30" stroke="gray" stroke-linecap="round" stroke-linejoin="round" stroke-width="1"/>
      </g>
      <g id="Graphic_111">
        <rect x="413.2374" y="424.63147" width="30" height="30" fill="white"/>
        <rect x="413.2374" y="424.63147" width="30" height="30" stroke="gray" stroke-linecap="round" stroke-linejoin="round" stroke-width="1"/>
      </g>
      <g id="Graphic_110">
        <rect x="443.2374" y="424.63147" width="30" height="30" fill="white"/>
        <rect x="443.2374" y="424.63147" width="30" height="30" stroke="gray" stroke-linecap="round" stroke-linejoin="round" stroke-width="1"/>
      </g>
      <g id="Graphic_109">
        <rect x="413.2374" y="454.63147" width="30" height="30" fill="white"/>
        <rect x="413.2374" y="454.63147" width="30" height="30" stroke="gray" stroke-linecap="round" stroke-linejoin="round" stroke-width="1"/>
      </g>
      <g id="Graphic_108">
        <rect x="443.2374" y="454.63147" width="30" height="30" fill="white"/>
        <rect x="443.2374" y="454.63147" width="30" height="30" stroke="gray" stroke-linecap="round" stroke-linejoin="round" stroke-width="1"/>
      </g>
      <g id="Graphic_107">
        <rect x="353.2374" y="484.63147" width="30" height="30" fill="white"/>
        <rect x="353.2374" y="484.63147" width="30" height="30" stroke="gray" stroke-linecap="round" stroke-linejoin="round" stroke-width="1"/>
      </g>
      <g id="Graphic_106">
        <rect x="383.2374" y="484.63147" width="30" height="30" fill="white"/>
        <rect x="383.2374" y="484.63147" width="30" height="30" stroke="gray" stroke-linecap="round" stroke-linejoin="round" stroke-width="1"/>
      </g>
      <g id="Graphic_105">
        <rect x="353.2374" y="514.6315" width="30" height="30" fill="white"/>
        <rect x="353.2374" y="514.6315" width="30" height="30" stroke="gray" stroke-linecap="round" stroke-linejoin="round" stroke-width="1"/>
      </g>
      <g id="Graphic_104">
        <rect x="383.2374" y="514.6315" width="30" height="30" fill="white"/>
        <rect x="383.2374" y="514.6315" width="30" height="30" stroke="gray" stroke-linecap="round" stroke-linejoin="round" stroke-width="1"/>
      </g>
      <g id="Graphic_103">
        <rect x="413.2374" y="484.63147" width="30" height="30" fill="white"/>
        <rect x="413.2374" y="484.63147" width="30" height="30" stroke="gray" stroke-linecap="round" stroke-linejoin="round" stroke-width="1"/>
      </g>
      <g id="Graphic_102">
        <rect x="443.2374" y="484.63147" width="30" height="30" fill="white"/>
        <rect x="443.2374" y="484.63147" width="30" height="30" stroke="gray" stroke-linecap="round" stroke-linejoin="round" stroke-width="1"/>
      </g>
      <g id="Graphic_101">
        <rect x="413.2374" y="514.6315" width="30" height="30" fill="white"/>
        <rect x="413.2374" y="514.6315" width="30" height="30" stroke="gray" stroke-linecap="round" stroke-linejoin="round" stroke-width="1"/>
      </g>
      <g id="Graphic_100">
        <rect x="443.2374" y="514.6315" width="30" height="30" fill="white"/>
        <rect x="443.2374" y="514.6315" width="30" height="30" stroke="gray" stroke-linecap="round" stroke-linejoin="round" stroke-width="1"/>
      </g>
      <g id="Graphic_99">
        <rect x="353.2374" y="154" width="30" height="30" fill="#ffc0c0"/>
        <rect x="353.2374" y="154" width="30" height="30" stroke="gray" stroke-linecap="round" stroke-linejoin="round" stroke-width="1"/>
      </g>
      <g id="Graphic_98">
        <rect x="383.2374" y="154" width="30" height="30" fill="#ffc0c0"/>
        <rect x="383.2374" y="154" width="30" height="30" stroke="gray" stroke-linecap="round" stroke-linejoin="round" stroke-width="1"/>
      </g>
      <g id="Graphic_97">
        <rect x="353.2374" y="184" width="30" height="30" fill="#ffc0c0"/>
        <rect x="353.2374" y="184" width="30" height="30" stroke="gray" stroke-linecap="round" stroke-linejoin="round" stroke-width="1"/>
      </g>
      <g id="Graphic_96">
        <rect x="383.2374" y="184" width="30" height="30" fill="#ffc0c0"/>
        <rect x="383.2374" y="184" width="30" height="30" stroke="gray" stroke-linecap="round" stroke-linejoin="round" stroke-width="1"/>
      </g>
      <g id="Graphic_95">
        <rect x="413.2374" y="154" width="30" height="30" fill="#ffc0c0"/>
        <rect x="413.2374" y="154" width="30" height="30" stroke="gray" stroke-linecap="round" stroke-linejoin="round" stroke-width="1"/>
      </g>
      <g id="Graphic_94">
        <rect x="443.2374" y="154" width="30" height="30" fill="#ffc0c0"/>
        <rect x="443.2374" y="154" width="30" height="30" stroke="gray" stroke-linecap="round" stroke-linejoin="round" stroke-width="1"/>
      </g>
      <g id="Graphic_93">
        <rect x="413.2374" y="184" width="30" height="30" fill="#ffc0c0"/>
        <rect x="413.2374" y="184" width="30" height="30" stroke="gray" stroke-linecap="round" stroke-linejoin="round" stroke-width="1"/>
      </g>
      <g id="Graphic_92">
        <rect x="443.2374" y="184" width="30" height="30" fill="#ffc0c0"/>
        <rect x="443.2374" y="184" width="30" height="30" stroke="gray" stroke-linecap="round" stroke-linejoin="round" stroke-width="1"/>
      </g>
      <g id="Graphic_91">
        <rect x="353.2374" y="214" width="30" height="30" fill="white"/>
        <rect x="353.2374" y="214" width="30" height="30" stroke="gray" stroke-linecap="round" stroke-linejoin="round" stroke-width="1"/>
      </g>
      <g id="Graphic_90">
        <rect x="383.2374" y="214" width="30" height="30" fill="white"/>
        <rect x="383.2374" y="214" width="30" height="30" stroke="gray" stroke-linecap="round" stroke-linejoin="round" stroke-width="1"/>
      </g>
      <g id="Graphic_89">
        <rect x="353.2374" y="244" width="30" height="30" fill="white"/>
        <rect x="353.2374" y="244" width="30" height="30" stroke="gray" stroke-linecap="round" stroke-linejoin="round" stroke-width="1"/>
      </g>
      <g id="Graphic_88">
        <rect x="383.2374" y="244" width="30" height="30" fill="white"/>
        <rect x="383.2374" y="244" width="30" height="30" stroke="gray" stroke-linecap="round" stroke-linejoin="round" stroke-width="1"/>
      </g>
      <g id="Graphic_87">
        <rect x="413.2374" y="214" width="30" height="30" fill="white"/>
        <rect x="413.2374" y="214" width="30" height="30" stroke="gray" stroke-linecap="round" stroke-linejoin="round" stroke-width="1"/>
      </g>
      <g id="Graphic_86">
        <rect x="443.2374" y="214" width="30" height="30" fill="white"/>
        <rect x="443.2374" y="214" width="30" height="30" stroke="gray" stroke-linecap="round" stroke-linejoin="round" stroke-width="1"/>
      </g>
      <g id="Graphic_85">
        <rect x="413.2374" y="244" width="30" height="30" fill="white"/>
        <rect x="413.2374" y="244" width="30" height="30" stroke="gray" stroke-linecap="round" stroke-linejoin="round" stroke-width="1"/>
      </g>
      <g id="Graphic_84">
        <rect x="443.2374" y="244" width="30" height="30" fill="white"/>
        <rect x="443.2374" y="244" width="30" height="30" stroke="gray" stroke-linecap="round" stroke-linejoin="round" stroke-width="1"/>
      </g>
      <g id="Graphic_83">
        <rect x="233.2374" y="244" width="30" height="30" fill="white"/>
        <rect x="233.2374" y="244" width="30" height="30" stroke="gray" stroke-linecap="round" stroke-linejoin="round" stroke-width="1"/>
      </g>
      <g id="Graphic_82">
        <rect x="263.2374" y="244" width="30" height="30" fill="white"/>
        <rect x="263.2374" y="244" width="30" height="30" stroke="gray" stroke-linecap="round" stroke-linejoin="round" stroke-width="1"/>
      </g>
      <g id="Graphic_81">
        <rect x="293.2374" y="244" width="30" height="30" fill="white"/>
        <rect x="293.2374" y="244" width="30" height="30" stroke="gray" stroke-linecap="round" stroke-linejoin="round" stroke-width="1"/>
      </g>
      <g id="Graphic_80">
        <rect x="323.2374" y="244" width="30" height="30" fill="white"/>
        <rect x="323.2374" y="244" width="30" height="30" stroke="gray" stroke-linecap="round" stroke-linejoin="round" stroke-width="1"/>
      </g>
    </g>
  </g>
</svg>
