<?xml version="1.0" encoding="UTF-8" standalone="no"?>
<!DOCTYPE svg PUBLIC "-//W3C//DTD SVG 1.1//EN"
 "http://www.w3.org/Graphics/SVG/1.1/DTD/svg11.dtd">
<!-- Generated by graphviz version 12.1.2 (20240928.0832)
 -->
<!-- Title: G Pages: 1 -->
<svg width="706pt" height="125pt"
 viewBox="0.00 0.00 705.99 125.00" xmlns="http://www.w3.org/2000/svg" xmlns:xlink="http://www.w3.org/1999/xlink">
<g id="graph0" class="graph" transform="scale(1 1) rotate(0) translate(4 121)">
<title>G</title>
<polygon fill="white" stroke="none" points="-4,4 -4,-121 701.99,-121 701.99,4 -4,4"/>
<!-- mm1 -->
<g id="node1" class="node">
<title>mm1</title>
<polygon fill="none" stroke="black" points="117.75,-63 90,-45 117.75,-27 145.49,-45 117.75,-63"/>
<text text-anchor="middle" x="117.75" y="-39.95" font-family="Times,serif" font-size="14.00">@</text>
</g>
<!-- x@M -->
<g id="node6" class="node">
<title>x@M</title>
<text text-anchor="middle" x="208.49" y="-39.95" font-family="Times,serif" font-size="14.00">x@M</text>
</g>
<!-- mm1&#45;&gt;x@M -->
<g id="edge3" class="edge">
<title>mm1&#45;&gt;x@M</title>
<path fill="none" stroke="black" d="M146.34,-45C153.93,-45 162.29,-45 170.32,-45"/>
<polygon fill="black" stroke="black" points="170.22,-48.5 180.22,-45 170.22,-41.5 170.22,-48.5"/>
</g>
<!-- mm2 -->
<g id="node2" class="node">
<title>mm2</title>
<polygon fill="none" stroke="black" points="527.5,-90 499.75,-72 527.5,-54 555.24,-72 527.5,-90"/>
<text text-anchor="middle" x="527.5" y="-66.95" font-family="Times,serif" font-size="14.00">@</text>
</g>
<!-- gelu(x@M) @N -->
<g id="node9" class="node">
<title>gelu(x@M) @N</title>
<text text-anchor="middle" x="644.62" y="-66.95" font-family="Times,serif" font-size="14.00">gelu(x@M) @N</text>
</g>
<!-- mm2&#45;&gt;gelu(x@M) @N -->
<g id="edge8" class="edge">
<title>mm2&#45;&gt;gelu(x@M) @N</title>
<path fill="none" stroke="black" d="M556.07,-72C563.39,-72 571.6,-72 579.99,-72"/>
<polygon fill="black" stroke="black" points="579.95,-75.5 589.95,-72 579.95,-68.5 579.95,-75.5"/>
</g>
<!-- gelu -->
<g id="node3" class="node">
<title>gelu</title>
<polygon fill="none" stroke="black" points="309.37,-63 271.49,-45 309.37,-27 347.25,-45 309.37,-63"/>
<text text-anchor="middle" x="309.37" y="-39.95" font-family="Times,serif" font-size="14.00">gelu</text>
</g>
<!-- gelu(x@M) -->
<g id="node7" class="node">
<title>gelu(x@M)</title>
<text text-anchor="middle" x="423.5" y="-39.95" font-family="Times,serif" font-size="14.00">gelu(x@M)</text>
</g>
<!-- gelu&#45;&gt;gelu(x@M) -->
<g id="edge5" class="edge">
<title>gelu&#45;&gt;gelu(x@M)</title>
<path fill="none" stroke="black" d="M348.33,-45C355.93,-45 364.03,-45 371.97,-45"/>
<polygon fill="black" stroke="black" points="371.92,-48.5 381.92,-45 371.92,-41.5 371.92,-48.5"/>
</g>
<!-- x -->
<g id="node4" class="node">
<title>x</title>
<text text-anchor="middle" x="27" y="-66.95" font-family="Times,serif" font-size="14.00">x</text>
</g>
<!-- x&#45;&gt;mm1 -->
<g id="edge1" class="edge">
<title>x&#45;&gt;mm1</title>
<path fill="none" stroke="black" d="M53.67,-64.19C64.23,-60.98 76.52,-57.24 87.44,-53.92"/>
<polygon fill="black" stroke="black" points="88.18,-57.35 96.73,-51.09 86.15,-50.65 88.18,-57.35"/>
</g>
<!-- M -->
<g id="node5" class="node">
<title>M</title>
<text text-anchor="middle" x="27" y="-12.95" font-family="Times,serif" font-size="14.00">M</text>
</g>
<!-- M&#45;&gt;mm1 -->
<g id="edge2" class="edge">
<title>M&#45;&gt;mm1</title>
<path fill="none" stroke="black" d="M53.67,-25.81C64.23,-29.02 76.52,-32.76 87.44,-36.08"/>
<polygon fill="black" stroke="black" points="86.15,-39.35 96.73,-38.91 88.18,-32.65 86.15,-39.35"/>
</g>
<!-- x@M&#45;&gt;gelu -->
<g id="edge4" class="edge">
<title>x@M&#45;&gt;gelu</title>
<path fill="none" stroke="black" d="M235.47,-45C242.78,-45 250.99,-45 259.18,-45"/>
<polygon fill="black" stroke="black" points="259.15,-48.5 269.15,-45 259.15,-41.5 259.15,-48.5"/>
</g>
<!-- gelu(x@M)&#45;&gt;mm2 -->
<g id="edge6" class="edge">
<title>gelu(x@M)&#45;&gt;mm2</title>
<path fill="none" stroke="black" d="M463.64,-55.36C474.42,-58.21 485.94,-61.26 496.14,-63.96"/>
<polygon fill="black" stroke="black" points="494.96,-67.27 505.52,-66.45 496.75,-60.5 494.96,-67.27"/>
</g>
<!-- N -->
<g id="node8" class="node">
<title>N</title>
<text text-anchor="middle" x="423.5" y="-93.95" font-family="Times,serif" font-size="14.00">N</text>
</g>
<!-- N&#45;&gt;mm2 -->
<g id="edge7" class="edge">
<title>N&#45;&gt;mm2</title>
<path fill="none" stroke="black" d="M450.24,-92.19C464.11,-88.51 481.33,-83.96 495.89,-80.1"/>
<polygon fill="black" stroke="black" points="496.65,-83.52 505.42,-77.58 494.86,-76.75 496.65,-83.52"/>
</g>
</g>
</svg>
